<?xml version="1.0" encoding="UTF-8"?>
<svg id="Layer_2" data-name="Layer 2" xmlns="http://www.w3.org/2000/svg" viewBox="0 0 74.99 74.99">
  <defs>
    <style>
      .cls-1 {
        fill: #0095f6;
      }
    </style>
  </defs>
  <g id="Layer_1-2" data-name="Layer 1">
    <g>
      <path class="cls-1" d="M41.79,33.35l-4.29,3.23h-.01l-4.29-3.23-6.03-4.54c-1.64,2.17-2.61,4.86-2.61,7.77,0,3.57,1.45,6.82,3.79,9.15,2.35,2.35,5.58,3.79,9.15,3.79s6.8-1.45,9.15-3.79c2.33-2.33,3.78-5.58,3.78-9.15,0-2.91-.97-5.62-2.59-7.78l-6.04,4.55Z"/>
      <path class="cls-1" d="M74.99,27.45l-9.84-5.69V9.66h-12.03L47.54,0l-10.05,5.8L27.45,0l-5.58,9.66H10.18v11.91L0,27.45l5.8,10.05L0,47.54l10.18,5.88v11.07h11.21l6.06,10.5,10.05-5.81,10.05,5.81,6.06-10.5h11.55v-11.26l9.84-5.69-5.81-10.05,5.81-10.05Zm-22.85,23.78c-1.88,1.86-4.11,3.38-6.58,4.43-2.48,1.05-5.2,1.63-8.06,1.63-11.43,0-20.7-9.26-20.7-20.7,0-4.66,1.55-8.97,4.15-12.43,.59-.79,1.23-1.52,1.9-2.19,.54-.54,1.09-1.03,1.68-1.5,.01-.01,.03-.03,.06-.04h0c1.34-1.08,2.83-1.99,4.42-2.7l.32,1.17,1.79,6.44,6.36,4.79h.01l6.35-4.79,1.79-6.44,.33-1.17c1.59,.7,3.08,1.61,4.42,2.69h.01s.03,.03,.06,.04c1.34,1.08,2.54,2.32,3.57,3.7,2.62,3.46,4.17,7.78,4.17,12.45,0,5.73-2.32,10.89-6.06,14.64Z"/>
    </g>
  </g>
</svg>