<?xml version="1.0" encoding="UTF-8"?>
<svg id="Layer_2" data-name="Layer 2" xmlns="http://www.w3.org/2000/svg" viewBox="0 0 60.14 60.14">
  <defs>
    <style>
      .cls-1 {
        fill: #fff;
      }
    </style>
  </defs>
  <g id="Layer_2-2" data-name="Layer 2">
    <g>
      <path class="cls-1" d="M30.07,60.14C13.49,60.14,0,46.65,0,30.07S13.49,0,30.07,0s30.07,13.49,30.07,30.07-13.49,30.07-30.07,30.07Zm0-58.14C14.59,2,2,14.59,2,30.07s12.59,28.07,28.07,28.07,28.07-12.59,28.07-28.07S45.55,2,30.07,2Z"/>
      <path class="cls-1" d="M47.69,15.83c-1.09-1.47-2.37-2.8-3.8-3.95-.04-.01-.07-.04-.07-.04h-.01c-1.43-1.15-3.02-2.13-4.71-2.87l-.36,1.25-1.91,6.87-6.77,5.11h0l-6.78-5.11-1.91-6.87-.35-1.25c-1.69,.76-3.28,1.73-4.71,2.88-.03,.01-.05,.03-.06,.04-.63,.5-1.22,1.03-1.8,1.6-.71,.72-1.39,1.49-2.02,2.34-2.78,3.69-4.43,8.29-4.43,13.26,0,12.2,9.89,22.08,22.08,22.08,3.05,0,5.95-.62,8.6-1.74,2.63-1.12,5.01-2.74,7.02-4.73,3.99-4,6.45-9.49,6.45-15.59,0-4.98-1.65-9.59-4.45-13.28Zm-7.86,23.01c-2.5,2.49-5.95,4.04-9.76,4.04s-7.25-1.54-9.76-4.04c-2.5-2.49-4.04-5.95-4.04-9.76,0-3.11,1.03-5.98,2.78-8.29l6.43,4.84,4.58,3.45h.01l4.58-3.45h.01l6.44-4.85c1.73,2.3,2.76,5.19,2.76,8.3,0,3.81-1.54,7.27-4.03,9.76Z"/>
    </g>
  </g>
</svg>