<?xml version="1.0" encoding="UTF-8"?>
<svg id="Layer_2" data-name="Layer 2" xmlns="http://www.w3.org/2000/svg" viewBox="0 0 60 60">
  <defs>
    <style>
      .cls-1 {
        fill: #0071BC;
      }
    </style>
  </defs>
  <g id="Layer_2-2" data-name="Layer 2">
    <g>
      <path class="cls-1" d="M34.4,25.75h0l-4.38,3.3h0l-4.38-3.3-6.15-4.63c-1.67,2.21-2.66,4.96-2.66,7.93,0,3.65,1.47,6.96,3.87,9.34,2.4,2.39,5.69,3.87,9.34,3.87s6.95-1.48,9.34-3.87c2.38-2.38,3.86-5.69,3.86-9.34,0-2.98-.99-5.74-2.64-7.94l-6.16,4.64Z"/>
      <path class="cls-1" d="M30,0C13.43,0,0,13.44,0,30s13.43,30,30,30,30-13.44,30-30S46.57,0,30,0Zm14.95,44c-1.92,1.9-4.2,3.45-6.72,4.53-2.54,1.07-5.31,1.67-8.23,1.67-11.67,0-21.13-9.45-21.13-21.13,0-4.76,1.58-9.16,4.24-12.69,.6-.81,1.25-1.55,1.93-2.24,.56-.55,1.12-1.05,1.72-1.53,0,0,.03-.03,.06-.04,1.37-1.1,2.89-2.03,4.51-2.76l.33,1.2,1.83,6.57,6.49,4.89h0l6.48-4.89,1.83-6.57,.34-1.2c1.62,.71,3.14,1.65,4.51,2.75h0s.03,.03,.07,.04c1.37,1.1,2.59,2.37,3.64,3.78,2.68,3.53,4.26,7.94,4.26,12.71,0,5.84-2.35,11.09-6.17,14.92Z"/>
    </g>
  </g>
</svg>